<?xml version="1.0" standalone="no"?>
<!DOCTYPE svg PUBLIC "-//W3C//DTD SVG 20010904//EN"
 "http://www.w3.org/TR/2001/REC-SVG-20010904/DTD/svg10.dtd">
<svg version="1.0" xmlns="http://www.w3.org/2000/svg"
 width="460.000000pt" height="460.000000pt" viewBox="0 0 460.000000 460.000000"
 preserveAspectRatio="xMidYMid meet">
<metadata>
Created by potrace 1.14, written by Peter Selinger 2001-2017
</metadata>
<g transform="translate(0.000000,460.000000) scale(0.100000,-0.100000)"
fill="#000000" stroke="none">
<path d="M0 4539 c0 -37 4 -58 10 -54 5 3 10 13 10 21 0 8 4 13 10 9 5 -3 24
1 42 8 19 8 64 17 101 21 62 7 67 9 67 32 0 23 -2 24 -74 24 -50 0 -76 -4 -79
-12 -4 -10 -6 -10 -6 0 -1 7 -16 12 -41 12 l-40 0 0 -61z"/>
<path d="M870 4590 c0 -5 16 -24 35 -41 19 -18 35 -38 35 -44 0 -7 9 -24 20
-37 15 -20 20 -44 22 -109 2 -46 6 -87 11 -90 7 -5 10 -13 27 -100 5 -25 16
-58 24 -75 8 -16 24 -83 36 -149 29 -164 41 -218 51 -231 5 -6 6 -32 3 -57
-10 -69 9 -91 88 -106 77 -15 214 -60 248 -80 14 -9 51 -35 84 -58 64 -47 76
-50 111 -27 22 14 23 21 20 84 -2 38 -11 94 -20 124 -9 31 -14 59 -11 64 2 4
0 26 -5 48 -9 39 -29 169 -49 319 -6 44 -16 100 -22 125 -6 25 -15 77 -18 115
-4 39 -10 81 -13 95 -8 33 -16 91 -24 173 l-6 67 -323 0 c-204 0 -324 -4 -324
-10z"/>
<path d="M2764 4572 c-17 -15 -38 -41 -47 -58 -9 -17 -23 -36 -31 -43 -23 -19
-146 -291 -201 -446 -10 -27 -22 -54 -26 -60 -4 -5 -14 -32 -22 -60 -8 -27
-29 -77 -46 -110 -17 -32 -34 -74 -37 -92 -3 -18 -11 -33 -16 -33 -26 0 -40
-31 -33 -78 3 -26 11 -54 16 -62 7 -11 8 -4 4 20 -4 24 -1 41 10 55 16 20 16
20 6 -2 -12 -23 -5 -56 10 -48 4 3 6 12 3 19 -3 8 0 17 7 22 7 4 10 3 5 -4 -3
-6 -2 -13 2 -16 10 -6 7 -143 -3 -175 -12 -39 4 -21 30 34 28 59 36 68 29 33
-2 -13 4 -2 13 24 24 63 30 66 30 13 0 -67 16 -75 37 -18 l16 48 -5 -47 c-7
-52 0 -62 16 -25 8 19 9 18 3 -8 -3 -16 -8 -50 -11 -74 -6 -52 11 -53 38 -1
22 40 46 66 34 35 -4 -11 -16 -49 -26 -85 -9 -36 -18 -58 -18 -50 -2 27 -21
-12 -21 -44 0 -22 -4 -27 -16 -22 -14 5 -15 0 -10 -31 4 -27 3 -32 -4 -18 -8
19 -9 19 -9 -2 -1 -13 3 -23 8 -23 6 0 11 -16 13 -35 4 -48 20 -45 36 7 l12
43 -6 -55 -5 -54 27 29 c16 17 25 23 22 13 -4 -9 -3 -29 2 -45 7 -24 8 -25 9
-5 1 28 17 29 31 1 9 -16 8 -26 -4 -44 -20 -31 -20 -32 6 -30 12 1 34 17 50
36 29 33 29 34 23 7 -6 -24 -4 -27 14 -23 16 3 21 -1 21 -18 0 -18 2 -19 10
-7 8 12 10 9 10 -12 0 -35 23 -28 40 12 7 16 18 35 26 41 12 10 12 8 0 -15
-18 -35 -10 -65 19 -72 l23 -6 -19 -51 c-18 -50 -19 -83 0 -36 5 13 13 35 18
49 l10 25 8 -33 c5 -24 3 -38 -8 -50 -8 -9 -12 -24 -10 -32 4 -12 3 -12 -5 -1
-7 9 -12 10 -16 2 -4 -6 -11 -9 -15 -7 -4 3 -7 -4 -8 -14 -1 -11 3 -22 8 -25
5 -4 6 -12 2 -18 -3 -7 4 -3 18 8 13 11 26 22 29 24 3 2 -5 0 -17 -3 -22 -7
-41 8 -23 19 5 3 10 1 10 -5 0 -6 5 -8 10 -5 17 10 32 -5 20 -20 -7 -8 -7 -16
-2 -19 6 -3 12 1 16 9 3 8 14 15 24 15 10 0 23 5 30 12 9 9 12 9 12 0 0 -7 -3
-12 -7 -12 -5 0 -22 -14 -40 -30 -33 -31 -53 -38 -53 -18 0 6 -8 1 -19 -10
-10 -12 -23 -22 -29 -22 -6 0 -9 -8 -6 -17 2 -10 -1 -8 -7 4 -9 18 -8 25 5 38
18 18 21 51 6 60 -5 3 -10 2 -10 -2 0 -5 -19 -10 -42 -11 -24 -1 -60 -4 -81
-6 -22 -3 -35 -1 -32 4 3 5 -20 0 -51 -10 -32 -11 -67 -20 -78 -19 -23 1 -16
4 28 14 46 10 19 20 -47 17 -48 -2 -59 0 -47 8 12 9 7 10 -20 5 -81 -16 -87
-16 -53 0 35 16 61 45 27 30 -10 -5 -35 -9 -54 -9 -19 -1 -41 -5 -49 -10 -24
-16 -31 16 -8 36 25 22 6 14 -36 -14 -15 -11 -24 -25 -21 -31 5 -9 4 -9 -6 0
-10 9 -16 8 -27 -3 -8 -8 -19 -12 -24 -9 -5 4 -9 0 -9 -7 0 -9 -3 -9 -10 2 -5
8 -9 22 -9 30 0 10 3 8 9 -5 6 -13 9 -15 9 -5 1 13 3 13 12 0 9 -12 10 -12 5
3 -3 10 -6 21 -6 23 0 3 -5 2 -11 -2 -8 -4 -9 1 -4 17 4 15 -2 10 -18 -15 -22
-36 -24 -37 -30 -16 -7 27 -27 18 -28 -13 0 -12 -3 -16 -6 -9 -2 6 -11 12 -19
12 -9 0 -12 5 -8 12 4 7 3 8 -4 4 -7 -4 -12 -14 -12 -22 0 -27 -20 -14 -21 14
l0 27 -16 -22 c-24 -35 -33 -28 -34 25 -1 45 -1 45 -9 14 -11 -48 -24 -54 -17
-8 4 22 11 42 17 46 7 4 8 20 2 46 -8 37 -9 38 -20 17 -7 -12 -13 -33 -14 -47
-1 -13 -6 -22 -11 -19 -5 3 -6 17 -3 32 5 23 3 22 -9 -6 -11 -24 -19 -30 -34
-26 -11 3 -23 14 -27 25 -3 11 -8 17 -11 14 -3 -2 2 -19 11 -37 9 -17 14 -35
11 -39 -7 -11 16 -84 29 -92 8 -6 8 -8 -1 -8 -7 0 -17 9 -23 20 -6 11 -16 19
-23 17 -7 -1 -11 7 -9 19 5 35 -15 74 -38 74 -11 0 -20 5 -20 12 0 6 -3 8 -6
5 -4 -4 1 -19 11 -34 17 -26 19 -26 26 -8 5 14 8 7 8 -25 l1 -45 -20 25 c-11
14 -20 28 -20 33 0 4 -8 7 -18 7 -10 0 -26 14 -36 31 -20 33 -34 33 -16 0 8
-15 8 -26 0 -39 -10 -15 -10 -14 -5 4 4 14 0 24 -10 28 -13 5 -15 1 -10 -14 5
-15 -4 -10 -29 16 -20 20 -36 46 -36 58 0 15 -3 17 -12 8 -7 -7 -20 -12 -30
-12 -10 0 -18 -6 -18 -14 0 -25 -30 -27 -39 -3 -11 25 -47 58 -55 50 -3 -4 -6
-15 -6 -25 0 -11 -4 -16 -10 -13 -5 3 -10 1 -10 -5 0 -6 -8 -10 -17 -8 -14 2
-18 -3 -16 -24 1 -25 1 -26 -18 -10 -10 9 -19 23 -19 32 0 8 -5 22 -10 30 -8
12 -11 13 -22 2 -11 -11 -10 -16 5 -27 13 -10 15 -14 5 -18 -8 -4 -7 -6 5 -6
9 -1 17 -6 17 -12 0 -5 -4 -8 -8 -5 -5 3 -6 -8 -4 -24 2 -17 7 -28 11 -25 4 2
8 -2 8 -10 0 -8 -5 -11 -10 -8 -7 4 -8 -1 -4 -13 7 -18 7 -18 -8 0 -14 18 -20
15 -16 -7 1 -4 -6 -15 -14 -24 -9 -8 -14 -22 -11 -30 13 -32 -8 -34 -25 -2
-11 21 -18 28 -19 17 0 -10 -4 -18 -9 -18 -4 0 -14 -27 -20 -59 -6 -33 -18
-65 -26 -71 -8 -7 -15 -21 -15 -31 0 -10 -9 -24 -20 -32 -11 -8 -17 -17 -13
-20 3 -4 -2 -7 -13 -8 -11 0 -14 -3 -6 -6 24 -9 -7 -33 -36 -27 -23 5 -30 0
-44 -28 -10 -18 -20 -45 -24 -60 -3 -16 -10 -28 -15 -28 -5 0 -9 -9 -9 -19 0
-11 -5 -23 -10 -26 -6 -3 -10 -15 -10 -26 0 -11 -10 -23 -24 -29 -13 -5 -27
-14 -31 -19 -3 -6 -16 -11 -27 -11 -12 0 -18 -3 -15 -6 3 -4 -3 -18 -14 -33
-18 -23 -19 -27 -5 -37 22 -15 20 -23 -6 -33 -23 -9 -23 -9 7 -22 l29 -14 -34
-6 -35 -6 28 -11 c15 -6 27 -18 27 -27 0 -18 -17 -20 -22 -3 -3 9 -6 9 -12 0
-4 -7 -2 -12 4 -12 6 0 9 -4 6 -9 -3 -4 14 -7 39 -6 24 1 42 -2 39 -7 -3 -4
-23 -8 -45 -8 -21 0 -39 -4 -39 -10 0 -5 14 -10 31 -10 34 0 70 -27 47 -35 -7
-2 -20 -4 -28 -3 -33 3 -63 -2 -56 -9 8 -8 13 -10 49 -12 21 -1 21 -2 -6 -19
-15 -9 -27 -19 -27 -23 0 -3 -12 -4 -26 -1 -19 3 -25 1 -20 -7 4 -6 20 -11 36
-11 16 0 32 -4 35 -10 3 -5 -2 -10 -12 -10 -14 0 -15 -2 -5 -9 11 -6 10 -10
-5 -16 -16 -6 -14 -9 12 -20 l30 -13 -40 -11 c-22 -6 -47 -16 -55 -22 -12 -8
-10 -9 9 -4 36 11 90 12 151 4 53 -6 51 -6 -30 -8 -47 -1 -94 -7 -105 -12 -15
-6 -4 -8 40 -8 33 1 71 1 85 0 l25 -2 -23 -10 c-13 -5 -35 -6 -48 -3 -31 8
-96 -4 -89 -17 4 -5 37 -7 78 -4 68 5 70 5 37 -8 l-35 -14 28 -7 c15 -3 32 -4
37 -1 6 4 15 3 22 -1 7 -5 -1 -12 -23 -20 -18 -6 -33 -16 -32 -22 1 -5 -10
-13 -25 -18 l-27 -7 30 -7 30 -8 -36 -1 c-37 -1 -80 -31 -45 -31 13 0 16 -5
11 -19 -4 -14 0 -21 16 -26 15 -5 18 -10 9 -15 -9 -5 -8 -8 2 -12 7 -3 15 -21
16 -39 2 -18 13 -44 25 -58 17 -18 18 -23 5 -18 -21 7 -33 -20 -16 -40 7 -9
20 -12 37 -8 l26 7 -23 -25 -23 -24 35 -24 c39 -27 38 -39 -5 -39 -18 0 -29
-5 -29 -14 0 -8 -6 -16 -13 -19 -19 -7 -20 -62 -1 -77 13 -12 15 -10 10 16 -4
16 -3 22 0 14 4 -8 12 -18 18 -22 6 -4 4 -14 -9 -28 -14 -16 -16 -23 -7 -32 7
-7 12 -22 12 -35 0 -26 15 -31 23 -9 3 8 15 14 25 13 19 -1 19 -2 1 -42 -16
-36 -17 -40 -2 -43 12 -3 14 -13 9 -48 -3 -24 -2 -44 3 -44 5 0 16 -27 25 -60
18 -64 32 -75 42 -35 3 14 10 23 14 20 11 -7 4 -89 -9 -93 -15 -5 -14 -157 1
-182 10 -16 10 -24 0 -40 -15 -24 -16 -50 -2 -50 6 0 10 -11 10 -25 0 -16 6
-25 15 -25 11 0 15 -11 15 -40 0 -29 -4 -40 -15 -40 -11 0 -15 -11 -15 -40 0
-36 3 -40 25 -40 24 0 25 -3 25 -60 l0 -60 1715 0 1715 0 0 515 c0 503 0 515
-19 515 -11 0 -23 -5 -27 -11 -3 -6 -22 -17 -41 -25 -22 -10 -31 -19 -26 -27
4 -7 -5 -4 -21 6 -15 10 -39 21 -54 23 -23 5 -24 3 -11 -13 8 -9 29 -30 47
-46 18 -16 42 -43 54 -61 13 -19 -2 -9 -41 29 -50 49 -63 57 -71 45 -6 -10 -6
-18 3 -25 6 -5 19 -19 27 -29 14 -18 13 -19 -2 -13 -10 3 -18 2 -18 -2 0 -5
-18 -12 -41 -16 -28 -5 -39 -11 -35 -20 15 -40 18 -85 5 -85 -30 0 19 -30 68
-42 42 -10 48 -14 35 -24 -19 -14 -10 -30 32 -55 17 -10 24 -19 16 -19 -8 0
-21 -9 -28 -20 -7 -11 -19 -20 -27 -20 -9 0 -15 -9 -15 -22 0 -17 3 -19 9 -9
11 16 23 -1 16 -21 -3 -8 1 -21 10 -28 24 -20 18 -33 -15 -28 -39 6 -46 -5
-19 -31 21 -19 21 -22 6 -45 -12 -18 -13 -26 -4 -30 9 -5 9 -7 0 -12 -22 -10
-14 -33 12 -40 36 -9 31 -21 -16 -35 -23 -7 -43 -19 -46 -26 -6 -16 -59 -17
-69 -2 -3 6 0 15 7 20 12 7 11 9 -1 10 -8 1 -22 1 -31 0 -12 -1 -15 4 -12 23
4 19 -1 28 -25 40 -17 9 -33 25 -37 36 -3 11 -11 20 -17 20 -17 0 -76 73 -71
87 5 12 -7 17 -34 14 -6 -1 -14 3 -18 9 -3 5 1 10 9 10 9 0 16 7 16 15 0 8 -8
15 -18 15 -10 0 -29 8 -42 17 -14 10 -27 16 -30 15 -2 -2 -6 1 -8 7 -2 6 1 11
7 11 6 0 11 5 11 12 0 9 -3 9 -12 0 -24 -24 -38 -13 -38 28 0 33 -3 40 -20 40
-14 0 -26 12 -38 38 -9 20 -22 40 -29 45 -6 4 -15 22 -19 40 -3 17 -15 38 -26
46 -11 7 -17 19 -13 28 3 9 1 21 -3 27 -17 21 -23 97 -10 113 10 12 9 18 -6
28 -16 12 -15 14 12 20 16 3 33 5 38 4 5 -1 15 -1 22 0 22 2 3 21 -21 21 -18
0 -19 2 -7 10 12 8 12 10 -5 10 -20 0 -154 45 -163 55 -8 8 -4 7 111 -24 60
-17 114 -35 122 -41 7 -6 17 -10 21 -9 5 1 20 -2 34 -8 48 -20 70 -24 70 -15
0 6 -3 12 -7 14 -5 2 -25 22 -47 45 -37 40 -38 42 -22 64 19 27 20 39 5 39 -5
0 -7 -4 -4 -10 3 -5 1 -10 -4 -10 -6 0 -11 6 -11 13 0 7 -21 21 -47 29 -27 9
-75 26 -108 38 -33 11 -68 19 -78 16 -9 -2 -15 0 -12 4 3 5 -14 14 -37 20 -24
6 -56 15 -73 20 -16 5 -72 16 -122 26 -51 9 -93 19 -93 23 0 3 38 5 84 5 47
-1 99 1 116 5 28 5 22 9 -56 30 -64 18 -83 26 -68 31 14 6 5 9 -31 14 -27 4
-93 13 -145 21 -131 19 -162 23 -265 30 -49 4 -98 11 -110 16 -13 6 -2 7 35 4
30 -2 91 -7 135 -11 154 -12 402 -52 507 -83 58 -17 118 -31 132 -31 14 0 26
-5 26 -11 0 -6 9 -9 20 -6 11 3 18 1 15 -3 -3 -5 9 -11 27 -15 18 -3 47 -12
63 -20 17 -8 73 -30 125 -50 52 -21 100 -39 106 -42 6 -2 11 3 11 11 0 8 -6
12 -13 9 -7 -2 -21 1 -31 7 -16 10 -15 11 7 6 23 -5 24 -4 6 9 -10 7 -15 18
-11 24 3 6 -6 16 -20 23 -18 8 -22 14 -13 20 8 5 9 8 2 8 -7 0 -15 8 -18 17
-12 34 -35 67 -50 73 -9 3 -12 10 -8 17 6 9 17 10 42 3 18 -5 29 -6 24 -1 -5
5 -34 14 -64 20 -30 6 -86 18 -125 27 -110 25 -222 43 -318 50 -49 4 -83 10
-77 14 6 3 41 3 78 -1 178 -21 252 -32 312 -45 36 -7 97 -20 136 -29 39 -8 78
-16 85 -18 8 -2 4 1 -8 7 -13 5 -23 14 -23 19 0 4 -4 5 -10 2 -14 -9 -92 14
-85 26 4 5 10 7 14 5 4 -3 25 -1 45 5 41 11 43 30 5 40 -13 4 -19 8 -14 8 6 1
2 8 -8 16 -11 7 -25 11 -33 8 -8 -3 -14 -1 -14 5 0 5 7 12 15 16 29 11 2 48
-46 62 -57 18 -97 17 -192 -1 -43 -8 -88 -15 -100 -14 -34 1 130 36 206 44 37
4 67 11 67 16 0 6 -4 8 -9 5 -4 -3 -23 -1 -42 5 -19 6 -97 14 -174 19 l-140 8
180 -1 c99 0 186 -5 192 -10 7 -5 25 -6 40 -2 l28 7 -30 13 c-146 62 -563 99
-690 61 -33 -10 -91 -27 -130 -37 -38 -10 -110 -30 -160 -44 -49 -14 -94 -23
-100 -22 -5 2 13 9 40 16 100 24 155 44 148 54 -3 6 -1 7 6 3 6 -4 45 0 86 10
46 11 70 21 63 26 -8 4 -1 7 17 7 34 -1 66 6 290 55 237 52 321 79 317 102 -2
14 0 15 6 6 6 -9 15 -10 33 -3 23 9 23 10 2 10 -12 1 -25 6 -29 13 -5 8 0 9
15 5 19 -5 20 -3 9 10 -11 14 -11 15 8 5 17 -9 21 -8 21 5 0 8 -11 20 -24 26
-17 8 -22 16 -17 31 3 12 7 26 8 31 1 10 -48 11 -111 2 -18 -3 -33 -1 -33 4 0
5 8 9 18 9 14 0 15 2 2 9 -8 6 -17 8 -20 6 -4 -2 -7 3 -7 11 0 10 4 11 11 4
15 -15 82 -12 100 5 11 11 12 23 6 46 -13 43 -15 44 -47 24 l-28 -18 24 27
c14 14 20 26 15 26 -25 0 -133 -43 -151 -59 -11 -10 -33 -18 -50 -17 l-31 1
21 30 c12 17 25 32 29 33 5 2 5 9 1 15 -4 6 0 8 10 4 10 -4 16 -2 14 5 -1 7 3
12 8 13 26 2 114 70 104 80 -10 9 -59 -9 -59 -21 0 -8 -6 -14 -14 -14 -7 0
-33 -17 -57 -38 -62 -53 -109 -85 -116 -78 -8 7 -10 5 60 50 32 20 55 41 52
46 -3 6 -1 10 5 10 7 0 25 11 40 23 26 23 27 25 12 50 -15 25 -43 30 -71 13
-7 -5 -17 -4 -23 2 -7 7 -3 14 11 22 12 6 19 15 16 20 -3 5 5 16 17 24 12 9
17 16 11 16 -6 0 -16 -7 -23 -14 -6 -8 -27 -20 -46 -26 -19 -6 -34 -16 -34
-21 0 -5 -4 -9 -10 -9 -19 0 -10 17 16 30 30 17 55 53 28 43 -9 -3 -20 0 -24
7 -10 16 -57 0 -105 -36 -22 -17 -34 -20 -47 -13 -28 15 -2 45 59 70 58 23 71
44 23 37 -20 -3 -30 0 -30 9 0 7 -4 13 -10 13 -5 0 -10 -4 -10 -9 0 -10 -30
-24 -37 -17 -2 2 5 12 16 23 19 18 19 18 -26 14 l-45 -3 17 26 c10 15 25 31
34 37 13 8 12 9 -6 4 -19 -5 -23 -2 -23 14 0 12 -4 21 -10 21 -16 0 -11 25 10
50 11 12 17 27 14 32 -3 4 0 7 7 6 7 -2 15 5 17 15 2 12 -3 17 -17 17 -17 0
-19 3 -10 28 5 15 25 45 44 66 19 22 32 42 29 45 -4 3 -9 0 -11 -7 -7 -18 -33
-42 -46 -42 -6 0 4 16 23 35 19 20 40 33 48 30 7 -2 10 0 7 5 -3 6 2 10 13 10
23 0 67 45 57 59 -3 6 -15 11 -26 11 -16 0 -19 7 -19 40 0 27 6 42 18 49 11 7
12 10 3 11 -8 0 -11 6 -7 16 3 9 2 12 -5 9 -6 -4 -13 2 -16 14 -3 12 -12 21
-19 21 -21 0 -17 49 6 95 11 22 20 45 20 52 0 6 6 16 13 20 6 4 12 13 13 18 1
24 17 65 25 65 5 0 9 5 9 10 0 18 -18 11 -47 -18 -15 -16 -41 -32 -57 -36 -26
-6 -28 -5 -23 16 9 35 -10 258 -23 273 -7 8 -8 20 -4 26 5 9 2 10 -10 6 -10
-4 -20 -7 -22 -7 -3 0 -2 -5 2 -12 5 -8 2 -9 -10 -5 -10 4 -33 7 -52 7 -22 0
-33 4 -32 13 2 6 -3 11 -11 9 -12 -3 -12 0 -1 13 7 8 33 20 57 27 50 12 61 28
45 64 -12 25 -40 32 -58 14 -12 -12 -114 6 -114 20 0 5 19 13 43 18 l42 10
-50 1 c-64 2 -97 11 -92 25 4 12 91 10 143 -3 50 -13 61 -1 45 51 -7 24 -15
55 -18 71 -3 15 -10 27 -15 27 -6 0 -4 7 3 16 12 15 9 16 -31 11 -39 -6 -41
-5 -14 3 34 11 54 40 28 40 -8 0 -13 4 -10 9 7 10 -33 131 -42 131 -12 -1 -42
-27 -37 -32 3 -2 -14 -22 -37 -44 -40 -38 -40 -38 -19 -6 12 17 18 32 13 32
-6 0 -12 -5 -14 -12 -5 -14 -48 -21 -48 -8 0 6 30 25 67 43 64 31 89 59 66 76
-8 6 -23 31 -68 114 l-25 47 -133 0 c-129 -1 -133 -1 -163 -28z m381 -372 c-3
-5 -15 -10 -25 -10 -10 0 -21 -4 -24 -9 -3 -4 6 -6 21 -3 17 3 24 1 19 -6 -3
-6 0 -12 6 -15 7 -2 -7 -7 -32 -12 -25 -4 -53 -9 -62 -11 -10 -1 -18 1 -18 6
0 12 36 31 43 24 3 -3 3 3 0 14 -4 16 1 21 24 25 50 7 54 7 48 -3z m-32 -137
c-7 -2 -21 -2 -30 0 -10 3 -4 5 12 5 17 0 24 -2 18 -5z m-233 -47 c0 -2 -8
-10 -17 -17 -16 -13 -17 -12 -4 4 13 16 21 21 21 13z m-270 -240 c0 -2 -8 -10
-17 -17 -16 -13 -17 -12 -4 4 13 16 21 21 21 13z m-70 -59 c0 -2 -12 -14 -27
-28 l-28 -24 24 28 c23 25 31 32 31 24z m-90 -90 c0 -2 -10 -12 -22 -23 l-23
-19 19 23 c18 21 26 27 26 19z m-63 -139 c-3 -7 -5 -2 -5 12 0 14 2 19 5 13 2
-7 2 -19 0 -25z m293 -418 c0 -5 -2 -10 -4 -10 -3 0 -8 5 -11 10 -3 6 -1 10 4
10 6 0 11 -4 11 -10z m-10 -30 c0 -5 -4 -10 -10 -10 -5 0 -10 5 -10 10 0 6 5
10 10 10 6 0 10 -4 10 -10z m-9 -51 c-5 -13 -10 -19 -10 -12 -1 15 10 45 15
40 3 -2 0 -15 -5 -28z m259 -99 c0 -5 -4 -10 -10 -10 -5 0 -10 5 -10 10 0 6 5
10 10 10 6 0 10 -4 10 -10z m20 -35 c-7 -8 -17 -12 -22 -9 -6 4 -4 10 6 16 9
5 17 17 17 26 1 15 2 15 6 -1 3 -10 -1 -24 -7 -32z m342 19 c-7 -12 -11 -13
-17 -4 -4 7 -2 16 6 21 18 11 23 4 11 -17z m-302 -3 c-5 -11 -15 -23 -22 -27
-7 -5 -8 -2 -3 7 21 37 44 55 25 20z m-1522 -52 c-3 -8 -7 -3 -11 10 -4 17 -3
21 5 13 5 -5 8 -16 6 -23z m206 -71 c14 -27 22 -48 17 -48 -8 0 -61 91 -61
106 0 13 16 -8 44 -58z m115 16 c6 -15 9 -29 6 -32 -3 -3 -5 1 -5 9 0 12 -2
11 -11 -1 -9 -13 -10 -12 -5 2 3 10 1 20 -4 23 -12 8 -13 25 -2 25 5 0 14 -12
21 -26z m501 2 c0 -3 -4 -8 -10 -11 -5 -3 -10 -1 -10 4 0 6 5 11 10 11 6 0 10
-2 10 -4z m40 -30 c0 -2 -13 -6 -29 -8 -17 -2 -28 -1 -25 4 5 8 54 12 54 4z
m-973 -48 c-3 -8 -6 -5 -6 6 -1 11 2 17 5 13 3 -3 4 -12 1 -19z m1583 -41 c0
-7 -13 -21 -30 -30 -37 -22 -40 -6 -4 22 31 25 34 25 34 8z m430 -27 c0 -5 -5
-10 -11 -10 -5 0 -7 5 -4 10 3 6 8 10 11 10 2 0 4 -4 4 -10z m-637 -35 c-3 -9
-8 -14 -10 -11 -3 3 -2 9 2 15 9 16 15 13 8 -4z m-59 -9 c-3 -8 0 -17 7 -22 8
-4 10 -3 5 4 -4 7 -2 12 4 12 6 0 13 -7 17 -16 5 -13 10 -12 31 8 19 17 18 13
-6 -15 -18 -21 -29 -43 -26 -49 4 -6 3 -8 -4 -4 -5 3 -12 0 -15 -6 -2 -7 -8
-10 -12 -5 -5 4 2 19 16 33 23 26 23 26 2 13 -13 -8 -23 -17 -23 -22 0 -4 -4
-6 -9 -2 -5 3 -12 1 -16 -5 -3 -5 -12 -10 -20 -10 -20 0 32 98 52 100 1 0 0
-6 -3 -14z m771 -15 c-5 -9 -63 -41 -73 -41 -3 0 9 11 28 25 34 25 56 33 45
16z m-665 -41 c0 -5 -5 -10 -11 -10 -5 0 -7 5 -4 10 3 6 8 10 11 10 2 0 4 -4
4 -10z m150 -14 c0 -2 -8 -10 -17 -17 -16 -13 -17 -12 -4 4 13 16 21 21 21 13z
m-99 -49 c-13 -13 -15 1 -4 30 7 17 8 17 11 -1 2 -10 -1 -23 -7 -29z m629 23
c0 -5 -8 -10 -17 -10 -15 0 -16 2 -3 10 19 12 20 12 20 0z m-568 -43 c-18 -18
-29 -37 -25 -42 5 -4 2 -5 -4 -1 -8 4 -13 2 -13 -5 0 -7 -3 -10 -6 -6 -3 3 2
22 12 42 10 22 20 32 24 25 5 -8 11 -6 20 5 7 8 15 15 18 15 3 0 -9 -15 -26
-33z m593 23 c-3 -5 -16 -15 -28 -21 -19 -9 -19 -8 3 10 28 23 34 26 25 11z
m95 6 c0 -7 -97 -76 -106 -76 -14 1 79 79 94 80 6 0 12 -2 12 -4z m-816 -66
c-27 -28 -48 -55 -47 -59 1 -5 -4 -15 -13 -22 -13 -10 -13 -9 -5 13 7 19 6 30
-5 42 -13 14 -12 15 3 1 16 -14 21 -11 59 30 22 25 44 45 49 45 4 0 -14 -23
-41 -50z m157 -8 c-5 -10 -18 -25 -28 -33 -12 -10 -11 -5 6 19 24 35 38 43 22
14z m-121 -16 c0 -2 -8 -10 -17 -17 -16 -13 -17 -12 -4 4 13 16 21 21 21 13z
m70 0 c0 -2 -8 -10 -17 -17 -16 -13 -17 -12 -4 4 13 16 21 21 21 13z m-228
-38 c-13 -13 1 -38 22 -38 6 0 5 4 -3 9 -12 8 -12 12 -2 25 8 9 18 16 23 16 6
0 6 -6 -1 -14 -6 -8 -11 -18 -9 -22 3 -12 -49 -65 -87 -88 l-30 -19 24 26 c14
15 20 31 15 38 -5 8 -2 11 8 7 17 -7 43 28 27 37 -10 7 6 35 19 35 3 0 1 -5
-6 -12z m148 -12 c0 -2 -8 -10 -17 -17 -16 -13 -17 -12 -4 4 13 16 21 21 21
13z m930 -36 c8 -5 11 -10 5 -10 -5 0 -17 5 -25 10 -8 5 -10 10 -5 10 6 0 17
-5 25 -10z m-70 -22 c-52 -31 -100 -58 -105 -58 -3 0 -5 5 -5 10 0 6 28 24 63
40 74 34 95 38 47 8z m-1073 -4 c-3 -3 -12 -4 -19 -1 -8 3 -5 6 6 6 11 1 17
-2 13 -5z m143 2 c0 -3 -4 -8 -10 -11 -5 -3 -10 -1 -10 4 0 6 5 11 10 11 6 0
10 -2 10 -4z m-194 -31 c-36 -19 -45 -19 -20 0 10 8 26 14 34 15 8 0 2 -7 -14
-15z m1124 -18 c-10 -9 -11 -9 -6 1 10 18 -4 15 -43 -9 -18 -11 -35 -18 -38
-15 -3 2 17 16 44 29 45 24 71 20 43 -6z m-983 -14 c-14 -14 -19 -15 -29 -4
-9 9 -9 12 -1 7 6 -3 14 -2 18 4 3 5 11 10 18 10 6 0 4 -7 -6 -17z m13 -23
c-8 -5 -19 -10 -25 -10 -5 0 -3 5 5 10 8 5 20 10 25 10 6 0 3 -5 -5 -10z
m-110 -45 c-7 -8 -16 -12 -21 -10 -4 3 -11 0 -16 -7 -4 -7 -17 -14 -28 -15
-17 -1 -17 1 5 18 14 10 30 17 37 14 6 -2 14 3 17 12 4 9 9 13 13 10 3 -4 0
-13 -7 -22z m90 10 c0 -1 -16 -15 -35 -29 -27 -21 -39 -25 -52 -17 -15 8 -15
11 -3 12 8 1 18 1 22 0 4 0 15 10 24 23 9 15 22 22 30 19 8 -3 14 -6 14 -8z
m155 -60 c-35 -16 -64 -20 -49 -6 10 10 39 18 64 19 8 0 2 -6 -15 -13z m-1854
-13 c-7 -2 -18 1 -23 6 -8 8 -4 9 13 5 13 -4 18 -8 10 -11z m1817 -13 c9 -1
-1 -5 -23 -9 -22 -4 -42 -6 -45 -3 -8 7 24 23 38 18 8 -3 21 -6 30 -6z m69 -5
c-3 -3 -12 -4 -19 -1 -8 3 -5 6 6 6 11 1 17 -2 13 -5z m-1887 -34 c13 -8 13
-10 -2 -10 -9 0 -20 5 -23 10 -8 13 5 13 25 0z m690 -10 c0 -5 -5 -10 -11 -10
-5 0 -7 5 -4 10 3 6 8 10 11 10 2 0 4 -4 4 -10z m-60 -44 c0 -5 7 -3 16 5 13
10 17 10 24 -1 5 -8 6 -18 4 -22 -3 -4 3 -8 13 -9 10 0 13 -3 6 -6 -7 -2 -13
-14 -13 -25 0 -17 3 -18 15 -8 8 7 15 18 15 24 0 6 12 16 26 23 22 10 24 10
14 -3 -15 -17 1 -19 18 -2 10 10 10 6 1 -20 -7 -22 -18 -32 -32 -33 -20 -1
-20 -2 3 -9 23 -7 23 -8 3 -9 -12 -1 -25 -6 -28 -11 -4 -7 3 -9 22 -5 21 5 24
4 13 -4 -12 -8 -12 -11 -1 -11 11 0 11 -3 1 -15 -7 -8 -17 -15 -22 -15 -6 0
-8 7 -4 15 3 8 2 15 -2 14 -9 0 -55 -59 -46 -59 4 0 12 7 18 15 12 16 60 10
50 -6 -3 -5 1 -9 8 -9 10 0 9 -3 -2 -9 -17 -12 -33 -4 -23 12 3 7 -3 4 -14 -6
-13 -11 -30 -16 -46 -13 -14 2 -28 1 -30 -2 -2 -4 -2 -1 -1 6 5 17 -15 15 -22
-3 -4 -8 -10 -15 -15 -15 -5 0 -4 9 3 20 10 15 10 22 1 31 -9 9 -11 7 -6 -10
3 -12 1 -21 -6 -21 -6 0 -11 -8 -12 -17 0 -16 -2 -15 -10 2 -6 15 -7 11 -3
-15 4 -19 3 -32 -2 -27 -4 4 -16 -10 -25 -30 -11 -22 -18 -30 -19 -20 0 10 -4
15 -10 12 -13 -8 -13 5 0 25 8 13 10 12 10 -5 0 -15 3 -16 12 -7 9 9 9 15 1
23 -6 6 -9 17 -7 24 3 6 -2 18 -11 25 -8 7 -15 17 -15 23 0 5 9 2 20 -8 19
-17 19 -17 7 8 -6 14 -15 23 -19 21 -4 -2 -3 8 1 23 4 16 6 33 4 40 -7 21 17
55 37 50 13 -3 16 0 13 14 -4 14 -1 16 16 12 12 -3 21 -1 21 6 0 6 -7 11 -16
11 -8 0 -13 4 -10 9 7 11 56 9 56 -3z m-653 -2 c-3 -3 -12 -4 -19 -1 -8 3 -5
6 6 6 11 1 17 -2 13 -5z m2917 -223 c4 -5 -3 -7 -14 -4 -23 6 -26 13 -6 13 8
0 17 -4 20 -9z m-2174 -15 c0 -3 -4 -8 -10 -11 -5 -3 -10 -1 -10 4 0 6 5 11
10 11 6 0 10 -2 10 -4z m2191 -36 c10 0 19 -4 19 -10 0 -5 -7 -10 -16 -10 -19
0 -46 25 -36 34 4 4 8 2 10 -3 2 -6 12 -11 23 -11z m-794 -56 c-3 -3 -12 -4
-19 -1 -8 3 -5 6 6 6 11 1 17 -2 13 -5z m326 -11 c-7 -2 -21 -2 -30 0 -10 3
-4 5 12 5 17 0 24 -2 18 -5z m-916 -119 c-3 -3 -12 -4 -19 -1 -8 3 -5 6 6 6
11 1 17 -2 13 -5z m395 -1 c-73 -2 -190 -2 -260 0 -70 1 -10 3 133 3 143 0
200 -2 127 -3z m446 -24 c74 -15 61 -20 -23 -8 -39 6 -113 14 -165 19 l-95 9
115 -4 c63 -2 139 -9 168 -16z m579 15 c-3 -3 -12 -4 -19 -1 -8 3 -5 6 6 6 11
1 17 -2 13 -5z m-784 -61 c-7 -2 -21 -2 -30 0 -10 3 -4 5 12 5 17 0 24 -2 18
-5z m110 -10 c-7 -2 -19 -2 -25 0 -7 3 -2 5 12 5 14 0 19 -2 13 -5z m60 -10
c-7 -2 -19 -2 -25 0 -7 3 -2 5 12 5 14 0 19 -2 13 -5z m54 -9 c-3 -3 -12 -4
-19 -1 -8 3 -5 6 6 6 11 1 17 -2 13 -5z m650 -10 c-3 -3 -12 -4 -19 -1 -8 3
-5 6 6 6 11 1 17 -2 13 -5z m-52 -32 c-3 -3 -11 0 -18 7 -9 10 -8 11 6 5 10
-3 15 -9 12 -12z m59 9 c4 -5 -3 -7 -14 -4 -23 6 -26 13 -6 13 8 0 17 -4 20
-9z m1 -31 c3 -5 -4 -6 -15 -3 -11 3 -22 9 -25 13 -3 5 4 6 15 3 11 -3 22 -9
25 -13z m-1172 -19 c123 -43 293 -135 380 -208 48 -39 22 -26 -64 33 -93 63
-223 131 -316 164 -35 13 -63 24 -63 26 0 6 3 5 63 -15z m904 -37 c-3 -3 -12
-4 -19 -1 -8 3 -5 6 6 6 11 1 17 -2 13 -5z m110 -30 c-3 -3 -12 -4 -19 -1 -8
3 -5 6 6 6 11 1 17 -2 13 -5z m63 -24 c0 -5 -4 -10 -10 -10 -5 0 -10 5 -10 10
0 6 5 10 10 10 6 0 10 -4 10 -10z m-286 -45 c15 -11 16 -15 5 -15 -8 0 -24 7
-35 15 -14 11 -15 14 -4 14 8 0 24 -6 34 -14z m307 -12 c-8 -15 -10 -15 -11
-2 0 17 10 32 18 25 2 -3 -1 -13 -7 -23z m-2711 -67 c0 -2 -8 -10 -17 -17 -16
-13 -17 -12 -4 4 13 16 21 21 21 13z m-30 -40 c0 -3 -4 -8 -10 -11 -5 -3 -10
-1 -10 4 0 6 5 11 10 11 6 0 10 -2 10 -4z m-160 -16 c0 -5 -4 -10 -10 -10 -5
0 -10 5 -10 10 0 6 5 10 10 10 6 0 10 -4 10 -10z m104 -45 c-4 -8 -13 -15 -22
-15 -13 0 -12 3 4 15 24 18 25 18 18 0z m-104 -10 c-7 -9 -15 -13 -17 -11 -7
7 7 26 19 26 6 0 6 -6 -2 -15z m3520 -61 c0 -2 -9 0 -20 6 -11 6 -20 13 -20
16 0 2 9 0 20 -6 11 -6 20 -13 20 -16z m-1073 -106 c66 -45 232 -165 281 -205
9 -7 13 -15 11 -18 -3 -2 -19 8 -35 23 -16 15 -43 36 -58 47 -16 11 -41 29
-56 40 -56 41 -172 121 -208 142 -20 13 -32 23 -25 23 6 0 47 -23 90 -52z
m-2087 -232 c0 -3 -4 -8 -10 -11 -5 -3 -10 -1 -10 4 0 6 5 11 10 11 6 0 10 -2
10 -4z m-157 -254 c-10 -10 -20 -17 -22 -16 -6 5 20 34 30 34 5 0 1 -8 -8 -18z
m1713 -7 c2 -29 1 -30 -20 -9 -17 16 -13 34 7 34 7 0 13 -11 13 -25z m64 10
c0 -9 -9 -15 -25 -15 -26 0 -34 15 -12 23 23 10 37 7 37 -8z m103 -52 c-10
-26 -19 -12 -15 19 4 28 6 30 12 13 4 -11 5 -26 3 -32z m1222 -104 c11 -17 -1
-21 -15 -4 -8 9 -8 15 -2 15 6 0 14 -5 17 -11z"/>
<path d="M1495 1890 c3 -5 8 -10 11 -10 2 0 4 5 4 10 0 6 -5 10 -11 10 -5 0
-7 -4 -4 -10z"/>
<path d="M1590 1890 c-8 -5 -10 -10 -5 -10 6 0 17 5 25 10 8 5 11 10 5 10 -5
0 -17 -5 -25 -10z"/>
<path d="M1520 1879 c0 -7 -11 -9 -27 -5 -16 3 -22 3 -15 0 6 -3 10 -9 7 -14
-3 -5 3 -7 12 -6 10 2 21 -2 25 -8 4 -6 8 1 8 17 0 15 -2 27 -5 27 -3 0 -5 -5
-5 -11z"/>
<path d="M1625 1862 c-3 -7 -1 -21 5 -30 8 -15 9 -15 10 4 0 11 5 25 10 30 7
7 6 11 -4 11 -8 0 -18 -7 -21 -15z"/>
<path d="M1590 1851 c0 -6 4 -13 10 -16 6 -3 7 1 4 9 -7 18 -14 21 -14 7z"/>
<path d="M1552 1834 c9 -9 21 -15 27 -13 6 2 -2 10 -17 17 -25 11 -25 11 -10
-4z"/>
<path d="M1575 1800 c-3 -5 -1 -10 4 -10 6 0 11 5 11 10 0 6 -2 10 -4 10 -3 0
-8 -4 -11 -10z"/>
<path d="M3440 4593 c0 -5 5 -37 11 -73 6 -36 11 -82 12 -102 0 -33 3 -38 24
-38 13 0 34 5 45 11 17 9 18 13 7 20 -12 7 -11 9 1 9 12 0 12 2 2 9 -9 5 -14
34 -15 90 l-2 81 -42 0 c-24 0 -43 -3 -43 -7z"/>
<path d="M4543 4590 c-13 -5 -23 -15 -23 -21 0 -19 -59 -67 -91 -74 -32 -7
-38 -29 -11 -44 15 -9 13 -10 -9 -11 -23 0 -28 -6 -39 -45 -7 -25 -18 -45 -25
-45 -19 0 -95 -80 -95 -100 0 -10 -10 -27 -23 -37 -13 -10 -22 -24 -19 -31 2
-6 -1 -12 -7 -12 -6 0 -11 -7 -11 -15 0 -9 -9 -15 -22 -15 -24 0 -124 -45
-152 -69 -10 -9 -19 -14 -21 -11 -1 3 -14 -9 -28 -26 -19 -22 -26 -41 -25 -71
0 -22 -3 -51 -7 -64 -8 -28 -61 -77 -91 -85 -51 -13 -68 -100 -38 -192 16 -49
16 -53 -2 -79 -10 -15 -24 -40 -31 -55 -7 -16 -17 -28 -23 -28 -15 0 -12 -26
5 -40 8 -7 13 -16 10 -20 -9 -15 59 -17 93 -3 18 7 37 11 41 9 5 -3 27 3 49
14 54 26 81 25 138 -5 26 -14 56 -25 67 -25 11 0 44 -7 73 -17 63 -20 79 -11
86 45 3 21 24 76 46 123 22 46 43 100 46 120 3 19 15 53 26 74 13 25 20 59 20
92 0 80 22 121 90 171 l60 44 0 279 c0 306 3 293 -57 269z"/>
<path d="M258 4563 c7 -3 16 -2 19 1 4 3 -2 6 -13 5 -11 0 -14 -3 -6 -6z"/>
<path d="M3482 4361 c-11 -7 -10 -33 7 -144 12 -74 21 -151 21 -170 0 -29 4
-36 26 -41 14 -4 35 -4 46 0 18 5 19 8 6 15 -16 9 -24 65 -35 229 -3 41 -6 85
-6 98 -2 16 -8 22 -27 22 -14 0 -31 -4 -38 -9z m93 -341 c3 -5 2 -10 -4 -10
-5 0 -13 5 -16 10 -3 6 -2 10 4 10 5 0 13 -4 16 -10z"/>
<path d="M3318 4253 c7 -3 16 -2 19 1 4 3 -2 6 -13 5 -11 0 -14 -3 -6 -6z"/>
<path d="M3215 3993 c-16 -3 -34 -9 -40 -15 -7 -7 -2 -9 15 -4 14 3 40 6 58 6
17 0 32 5 32 10 0 10 -10 11 -65 3z"/>
<path d="M3550 3970 c-8 -5 -10 -10 -5 -10 6 0 17 5 25 10 8 5 11 10 5 10 -5
0 -17 -5 -25 -10z"/>
<path d="M3548 3937 c-16 -6 -28 -14 -28 -18 0 -11 38 2 51 17 6 8 10 14 8 13
-2 -1 -16 -6 -31 -12z"/>
<path d="M3574 3914 c-18 -14 -18 -14 6 -3 31 14 36 19 24 19 -6 0 -19 -7 -30
-16z"/>
<path d="M3542 3882 c-19 -12 -16 -106 6 -212 11 -53 20 -102 20 -110 -4 -58
14 -65 53 -21 21 24 31 68 19 91 -1 3 -2 13 -1 22 1 10 -5 44 -13 77 -8 32
-16 81 -17 110 -2 48 -4 51 -28 51 -14 0 -32 -4 -39 -8z"/>
<path d="M2280 3670 c0 -5 5 -10 10 -10 6 0 10 5 10 10 0 6 -4 10 -10 10 -5 0
-10 -4 -10 -10z"/>
<path d="M486 3621 c-4 -6 -11 -9 -15 -7 -4 3 -17 -2 -29 -10 -36 -25 -29 -75
29 -192 28 -58 68 -133 90 -168 24 -38 37 -69 33 -76 -4 -7 -4 -10 1 -6 8 8
45 -34 45 -51 0 -7 7 -14 15 -17 20 -8 19 -21 -3 -48 -14 -18 -23 -21 -40 -15
-12 5 -22 13 -22 20 0 7 -9 9 -25 5 -29 -7 -33 8 -9 35 8 9 11 19 7 22 -5 3
-18 -7 -28 -23 -11 -16 -27 -31 -35 -33 -22 -5 -93 14 -111 29 -28 24 -211 94
-247 94 -18 0 -58 -7 -88 -16 l-54 -15 0 -110 c0 -129 -23 -115 209 -124 241
-9 331 -30 331 -78 0 -13 12 -30 30 -42 16 -11 30 -27 30 -36 0 -9 7 -22 16
-30 8 -7 22 -25 30 -40 13 -27 16 -28 114 -31 92 -3 120 2 88 15 -7 3 -1 6 13
6 16 1 26 7 26 16 0 8 -4 15 -9 15 -4 0 -8 4 -8 10 0 6 9 6 26 0 37 -14 49
-13 35 4 -7 8 -23 17 -37 20 -14 4 -22 11 -18 17 4 8 10 7 17 0 6 -6 29 -11
50 -11 33 0 38 2 27 15 -6 8 -30 18 -53 24 l-42 9 48 1 c29 1 46 5 42 11 -3 6
0 10 7 10 7 1 -7 12 -32 25 l-45 23 45 -4 45 -4 -48 24 -48 24 35 4 c20 2 39
1 44 -3 4 -3 21 -10 37 -13 l30 -7 -39 33 c-22 18 -48 38 -58 44 -17 9 -18 12
-4 23 13 11 19 11 31 1 9 -7 17 -11 19 -9 7 6 -37 52 -67 72 -37 24 -29 31 20
18 34 -9 36 -9 19 4 -11 8 -31 15 -45 16 -14 0 -20 3 -13 6 8 3 41 -2 74 -12
33 -9 62 -15 64 -13 4 5 -76 52 -88 53 -3 0 -10 3 -14 8 -11 11 6 8 67 -11 31
-9 63 -23 72 -30 21 -17 33 3 15 25 -11 15 -10 16 10 11 12 -4 20 -2 16 3 -3
5 -1 9 5 9 5 0 13 -4 16 -10 12 -20 27 -10 21 14 -7 27 12 40 35 25 23 -15 29
-10 29 21 0 34 2 35 30 18 17 -11 22 -10 30 2 17 26 6 54 -26 70 -17 9 -53 32
-80 51 -27 20 -83 52 -125 71 -42 20 -101 52 -132 71 -30 19 -88 47 -128 62
-41 14 -101 39 -134 55 -68 32 -158 49 -169 31z m251 -237 c-3 -3 -12 -4 -19
-1 -8 3 -5 6 6 6 11 1 17 -2 13 -5z m176 -33 c9 -10 1 -11 -38 -6 -72 11 -93
27 -27 22 29 -2 59 -10 65 -16z m-51 -38 c21 -9 35 -20 32 -25 -3 -5 -13 -7
-21 -4 -8 3 -55 8 -106 12 -100 6 -107 8 -107 31 0 13 12 14 83 9 45 -4 99
-14 119 -23z m108 -43 c0 -13 -11 -13 -30 0 -12 8 -11 10 8 10 12 0 22 -4 22
-10z m-38 -43 c75 -16 87 -31 18 -23 -30 3 -90 9 -132 12 -43 3 -75 10 -72 15
7 13 118 10 186 -4z m-247 -187 c3 -6 -1 -13 -10 -16 -19 -8 -30 0 -20 15 8
14 22 14 30 1z m250 -30 c8 -13 2 -13 -29 1 -14 7 -23 16 -20 20 6 10 39 -5
49 -21z m-75 -210 c-20 -13 -73 -13 -65 0 3 6 23 10 43 10 28 0 33 -3 22 -10z"/>
<path d="M3629 3497 c6 -8 8 -17 4 -20 -3 -4 -2 -7 4 -7 15 0 22 11 16 26 -3
8 -12 14 -20 14 -12 0 -13 -3 -4 -13z"/>
<path d="M2322 3452 c-1 -15 -6 -21 -14 -16 -8 5 -9 2 -5 -10 4 -10 7 -30 7
-44 1 -23 2 -25 11 -9 6 9 8 36 6 60 -2 23 -4 32 -5 19z"/>
<path d="M2445 3430 c4 -6 11 -8 16 -5 14 9 11 15 -7 15 -8 0 -12 -5 -9 -10z"/>
<path d="M1190 3360 c0 -4 11 -15 24 -23 13 -9 29 -22 37 -29 8 -8 33 -24 57
-36 l42 -22 0 26 c0 24 3 26 30 20 27 -5 29 -4 21 13 -19 35 -38 42 -100 37
-33 -2 -63 -1 -66 4 -7 11 -45 20 -45 10z"/>
<path d="M4377 3333 c-12 -11 -8 -23 8 -23 8 0 15 7 15 15 0 16 -12 20 -23 8z"/>
<path d="M2457 3306 c-4 -10 -5 -21 -2 -24 9 -9 17 6 13 25 -3 17 -4 17 -11
-1z"/>
<path d="M3802 3241 c-51 -18 -87 -39 -47 -28 11 3 38 8 60 12 22 3 51 13 65
20 l25 14 -25 0 c-14 0 -49 -9 -78 -18z"/>
<path d="M2356 3225 c-9 -25 -7 -75 3 -75 5 0 7 9 4 21 -3 12 0 25 7 29 9 5 9
13 3 25 -9 16 -10 16 -17 0z"/>
<path d="M3878 3227 c-27 -10 -44 -34 -33 -45 5 -6 95 15 104 23 6 7 -20 35
-33 34 -6 -1 -23 -6 -38 -12z"/>
<path d="M2402 3190 c0 -19 2 -27 5 -17 2 9 2 25 0 35 -3 9 -5 1 -5 -18z"/>
<path d="M2420 3198 c0 -16 4 -28 9 -28 18 0 20 17 6 36 -14 18 -14 18 -15 -8z"/>
<path d="M2462 3180 c0 -14 2 -19 5 -12 2 6 2 18 0 25 -3 6 -5 1 -5 -13z"/>
<path d="M2441 3144 c0 -11 3 -14 6 -6 3 7 2 16 -1 19 -3 4 -6 -2 -5 -13z"/>
<path d="M3845 3133 c-11 -2 -31 -9 -44 -16 l-23 -12 23 -5 c22 -5 21 -7 -12
-23 -19 -9 -28 -17 -21 -17 23 0 73 30 67 41 -4 5 -3 8 2 7 14 -4 53 13 53 23
0 9 -10 10 -45 2z"/>
<path d="M990 3006 c8 -8 26 -17 40 -21 21 -5 20 -3 -8 14 -37 24 -53 27 -32
7z"/>
<path d="M4200 2980 c34 -11 60 -11 35 0 -11 5 -29 8 -40 8 -16 0 -15 -2 5 -8z"/>
<path d="M4075 2960 c-3 -5 -1 -10 4 -10 6 0 11 5 11 10 0 6 -2 10 -4 10 -3 0
-8 -4 -11 -10z"/>
<path d="M4107 2963 c17 -6 -9 -33 -32 -33 -8 0 -18 -7 -21 -15 -4 -8 -12 -15
-20 -15 -7 0 -22 -10 -33 -21 -13 -14 -27 -20 -40 -16 -12 3 -26 -2 -33 -11
-11 -13 -10 -15 5 -9 12 4 20 1 24 -10 5 -14 20 -15 107 -10 72 3 88 2 57 -4
-53 -10 -65 -19 -25 -19 16 0 40 -3 53 -7 22 -6 21 -7 -17 -19 -24 -6 -52 -10
-65 -7 l-22 5 22 -16 c12 -9 27 -14 35 -11 7 3 33 1 58 -5 42 -9 43 -9 8 -7
-21 2 -38 -1 -38 -5 0 -4 -9 -8 -19 -8 -29 0 -35 -18 -9 -23 17 -3 14 -5 -9
-6 -61 -2 -27 -30 37 -31 20 0 22 -2 10 -10 -8 -5 -26 -10 -40 -10 -20 0 -22
-2 -10 -10 8 -5 31 -7 50 -4 19 3 46 1 60 -5 24 -9 24 -10 -10 -11 -49 -1 -77
-20 -30 -20 31 -1 33 -2 15 -12 -10 -6 -33 -15 -50 -19 -30 -7 -30 -7 -3 -8
15 -1 39 -6 55 -12 21 -8 24 -12 13 -19 -24 -15 34 -23 109 -16 59 6 69 4 85
-13 15 -17 20 -18 43 -6 47 25 59 65 18 65 -15 0 -25 6 -25 14 0 14 41 26 87
26 14 0 40 7 59 16 l34 16 0 104 c0 56 -4 105 -10 109 -5 3 -17 2 -27 -3 -32
-17 -107 -31 -135 -25 -19 4 -28 12 -28 24 0 19 -30 25 -97 19 -26 -2 -73 27
-73 45 0 7 7 18 15 25 13 11 12 15 -12 27 -16 8 -41 13 -56 10 -15 -2 -30 0
-33 5 -3 4 -15 8 -27 7 -12 0 -16 -3 -10 -6z"/>
<path d="M1620 2919 c0 -5 5 -7 10 -4 6 3 10 8 10 11 0 2 -4 4 -10 4 -5 0 -10
-5 -10 -11z"/>
<path d="M4005 2920 c-3 -5 3 -10 14 -10 12 0 21 5 21 10 0 6 -6 10 -14 10 -8
0 -18 -4 -21 -10z"/>
<path d="M1650 2906 c0 -2 8 -10 18 -17 15 -13 16 -12 3 4 -13 16 -21 21 -21
13z"/>
<path d="M2359 2843 c-13 -16 -12 -17 4 -4 9 7 17 15 17 17 0 8 -8 3 -21 -13z"/>
<path d="M1992 2800 c0 -14 2 -19 5 -12 2 6 2 18 0 25 -3 6 -5 1 -5 -13z"/>
<path d="M990 2760 c0 -6 7 -13 15 -17 24 -9 27 1 5 15 -13 8 -20 8 -20 2z"/>
<path d="M923 2680 c14 -11 29 -20 34 -20 11 1 -37 40 -49 40 -6 0 1 -9 15
-20z"/>
<path d="M695 2641 c-7 -12 39 -100 61 -116 10 -7 14 -17 10 -23 -9 -14 21
-42 45 -42 11 0 18 4 15 8 -2 4 12 6 32 4 l37 -4 -22 21 c-13 12 -23 24 -23
27 0 3 20 2 45 -2 53 -7 58 0 12 19 -18 8 -47 28 -64 46 -30 30 -31 31 -8 31
12 0 42 -7 65 -15 24 -8 45 -13 48 -11 7 8 -9 27 -19 21 -5 -4 -9 -2 -9 4 0 6
-7 7 -17 4 -12 -5 -14 -3 -8 7 5 8 4 11 -2 7 -6 -4 -27 0 -47 8 -39 17 -141
20 -151 6z"/>
<path d="M3504 2635 c-10 -8 -14 -14 -9 -15 15 0 40 18 34 24 -3 3 -14 -1 -25
-9z"/>
<path d="M3395 2600 c-3 -5 -2 -10 4 -10 5 0 13 5 16 10 3 6 2 10 -4 10 -5 0
-13 -4 -16 -10z"/>
<path d="M923 2557 c-3 -7 -3 -9 2 -5 4 4 16 3 26 -3 11 -5 19 -6 19 -1 0 15
-39 22 -47 9z"/>
<path d="M3595 2545 c-16 -14 -25 -25 -20 -25 6 1 24 12 40 25 17 14 26 25 20
25 -5 -1 -23 -12 -40 -25z"/>
<path d="M13 2553 c-10 -3 -13 -48 -13 -176 0 -154 2 -173 19 -191 11 -12 34
-50 53 -86 27 -51 41 -67 66 -76 50 -16 66 -37 55 -70 -19 -57 -97 -83 -175
-58 -17 5 -18 -5 -18 -182 0 -187 0 -187 27 -231 36 -55 117 -101 140 -78 8 8
25 18 37 21 31 7 106 -13 131 -36 21 -18 65 -36 65 -25 0 3 -12 29 -27 58 -23
46 -47 119 -73 227 -21 88 -67 399 -75 510 -4 54 -17 118 -37 175 -42 126 -72
178 -118 204 -21 11 -39 21 -41 20 -2 0 -10 -3 -16 -6z"/>
<path d="M210 2535 c0 -3 4 -11 10 -18 43 -53 60 -77 78 -114 26 -51 43 -56
135 -48 42 4 83 2 99 -4 29 -11 38 -1 38 44 0 48 -77 88 -199 105 -64 9 -85
14 -124 29 -32 12 -37 13 -37 6z"/>
<path d="M4123 2513 c9 -2 25 -2 35 0 9 3 1 5 -18 5 -19 0 -27 -2 -17 -5z"/>
<path d="M610 2498 c0 -7 7 -24 16 -36 8 -12 17 -30 19 -40 2 -10 15 -42 29
-71 14 -30 23 -57 21 -61 -3 -4 2 -11 11 -14 9 -3 14 -15 12 -28 -2 -16 3 -24
16 -26 15 -3 17 0 12 13 -4 11 0 25 10 36 16 18 16 19 1 19 -22 0 -22 16 1 29
16 10 16 10 -2 11 -15 0 -16 3 -6 15 10 12 9 16 -4 21 -15 6 -15 7 0 18 14 11
13 13 -10 24 -14 6 -26 17 -26 24 -1 37 -100 103 -100 66z"/>
<path d="M4537 2463 c-76 -78 -117 -127 -117 -139 0 -6 -7 -17 -15 -24 -11 -9
-12 -16 -4 -26 6 -7 8 -18 4 -24 -4 -6 8 -10 33 -10 25 0 42 -5 45 -14 4 -10
0 -12 -15 -8 -14 3 -19 1 -14 -6 7 -12 55 -28 109 -35 l37 -6 0 170 c0 93 -4
169 -8 169 -5 0 -30 -21 -55 -47z"/>
<path d="M4273 2442 c-8 -5 9 -12 42 -18 53 -9 79 -2 33 9 -13 3 -32 8 -43 11
-11 4 -25 3 -32 -2z"/>
<path d="M799 2419 c16 -6 28 -6 35 1 7 7 -1 10 -24 9 -33 0 -34 -1 -11 -10z"/>
<path d="M3680 2413 c-8 -3 -29 -18 -46 -32 -17 -14 -39 -31 -50 -37 -42 -26
-1 -24 68 1 93 35 104 43 81 61 -19 14 -29 16 -53 7z"/>
<path d="M4280 2310 c0 -5 5 -10 11 -10 5 0 7 5 4 10 -3 6 -8 10 -11 10 -2 0
-4 -4 -4 -10z"/>
<path d="M551 2161 c-6 -11 -14 -57 -17 -101 l-5 -80 25 0 c33 0 41 29 32 118
-8 75 -19 94 -35 63z"/>
<path d="M3815 2039 c-3 -3 -24 -9 -47 -13 -33 -5 -39 -9 -28 -17 11 -8 10 -9
-8 -4 -12 4 -46 0 -75 -8 -28 -9 -101 -25 -162 -38 -149 -30 -159 -38 -45 -39
99 0 252 -19 355 -44 33 -8 63 -12 67 -10 4 3 18 -2 30 -10 12 -9 29 -16 38
-16 8 0 -6 11 -32 24 l-48 23 26 12 c24 11 25 13 11 29 -16 17 -16 58 -2 103
6 18 2 20 -35 17 -23 -1 -43 -5 -45 -9z m-12 -26 c-7 -2 -21 -2 -30 0 -10 3
-4 5 12 5 17 0 24 -2 18 -5z"/>
<path d="M843 1893 c9 -2 23 -2 30 0 6 3 -1 5 -18 5 -16 0 -22 -2 -12 -5z"/>
<path d="M3948 1803 c7 -3 16 -2 19 1 4 3 -2 6 -13 5 -11 0 -14 -3 -6 -6z"/>
<path d="M3993 1793 c9 -2 23 -2 30 0 6 3 -1 5 -18 5 -16 0 -22 -2 -12 -5z"/>
<path d="M4437 1789 c6 -6 9 -17 7 -23 -4 -11 66 -36 102 -36 13 0 13 2 -2 18
-30 31 -68 52 -93 52 -19 0 -22 -3 -14 -11z"/>
<path d="M4396 1783 c-11 -11 -6 -23 8 -23 8 0 17 4 20 9 7 10 -19 23 -28 14z"/>
<path d="M3868 1763 c7 -3 16 -2 19 1 4 3 -2 6 -13 5 -11 0 -14 -3 -6 -6z"/>
<path d="M4473 1712 c10 -10 17 -24 17 -30 0 -7 5 -12 10 -12 6 0 10 -6 10
-14 0 -14 29 -26 68 -26 26 0 27 10 7 50 -15 28 -62 50 -109 50 -18 0 -18 -1
-3 -18z"/>
<path d="M4570 1600 c19 -13 30 -13 30 0 0 6 -10 10 -22 10 -19 0 -20 -2 -8
-10z"/>
<path d="M4550 1576 c0 -2 11 -11 25 -20 24 -16 25 -16 25 4 0 15 -7 20 -25
20 -14 0 -25 -2 -25 -4z"/>
<path d="M620 1548 c-6 -7 -26 -34 -45 -60 -20 -26 -55 -61 -80 -78 -25 -17
-50 -40 -56 -52 -17 -31 -13 -80 9 -124 11 -21 20 -43 21 -49 0 -5 17 -32 37
-58 30 -39 42 -47 63 -45 22 2 27 9 29 37 2 19 1 45 -3 59 -5 22 -10 24 -44
18 -49 -8 -87 18 -77 52 6 19 15 22 61 22 l54 0 34 73 c25 53 36 91 40 145 5
66 4 72 -13 72 -11 0 -24 -6 -30 -12z"/>
<path d="M4577 1523 c9 -7 8 -12 -7 -23 -11 -8 -20 -18 -20 -23 0 -5 7 -4 15
3 8 6 18 9 23 6 5 -3 8 5 7 16 -1 12 -8 24 -16 26 -10 3 -11 1 -2 -5z"/>
<path d="M3468 1463 c7 -3 16 -2 19 1 4 3 -2 6 -13 5 -11 0 -14 -3 -6 -6z"/>
<path d="M3555 1440 c33 -11 67 -19 75 -19 19 1 -53 24 -100 32 -19 4 -8 -2
25 -13z"/>
<path d="M4545 1450 c-7 -12 2 -12 30 0 19 8 19 9 -2 9 -12 1 -25 -3 -28 -9z"/>
<path d="M3660 1404 c8 -4 29 -13 47 -21 17 -8 37 -16 45 -17 7 -1 43 -17 80
-34 39 -18 75 -29 84 -25 12 4 15 3 10 -5 -5 -8 -2 -10 9 -6 11 4 14 2 10 -9
-4 -9 1 -16 14 -20 12 -3 22 1 25 10 5 11 2 13 -10 9 -15 -6 -15 -4 -3 10 12
15 12 17 -1 12 -8 -3 -22 0 -30 7 -23 19 -209 85 -255 90 -22 3 -33 2 -25 -1z"/>
<path d="M3590 1384 c25 -8 63 -17 85 -19 l40 -5 -40 20 c-23 11 -59 19 -85
19 l-45 -1 45 -14z"/>
<path d="M4557 1393 c-2 -5 -2 -14 -1 -20 1 -7 2 -17 3 -23 0 -5 11 -10 24
-10 22 1 22 1 -3 16 -24 14 -24 15 -2 11 12 -3 22 -1 22 4 0 5 -8 9 -17 10
-15 0 -15 2 2 9 19 8 19 9 -2 9 -12 1 -24 -2 -26 -6z"/>
<path d="M3510 1380 c14 -4 34 -8 45 -8 l20 -1 -20 9 c-11 5 -31 8 -45 8 l-25
0 25 -8z"/>
<path d="M3685 1333 c28 -8 77 -23 110 -34 109 -36 115 -38 115 -33 0 3 -13
10 -30 15 -16 6 -27 15 -24 20 3 5 -1 6 -9 3 -8 -3 -20 2 -27 11 -14 16 -35
21 -25 5 9 -14 3 -13 -55 10 -28 11 -63 20 -78 19 -20 -1 -15 -5 23 -16z"/>
<path d="M3757 1339 c7 -7 15 -10 18 -7 3 3 -2 9 -12 12 -14 6 -15 5 -6 -5z"/>
<path d="M4491 1314 c6 -8 18 -14 26 -14 20 0 8 16 -17 23 -17 4 -19 3 -9 -9z"/>
<path d="M4015 1240 c3 -5 8 -10 11 -10 2 0 4 5 4 10 0 6 -5 10 -11 10 -5 0
-7 -4 -4 -10z"/>
<path d="M3969 1204 c-12 -15 -11 -16 9 -10 13 5 21 3 20 -2 -2 -6 0 -10 5
-11 9 -1 10 1 2 22 -9 21 -19 22 -36 1z"/>
<path d="M945 1200 c-3 -5 -1 -10 4 -10 6 0 11 5 11 10 0 6 -2 10 -4 10 -3 0
-8 -4 -11 -10z"/>
<path d="M4580 1130 c0 -5 -7 -10 -15 -10 -9 0 -27 -11 -39 -24 -13 -12 -31
-26 -40 -29 -9 -4 -16 -11 -16 -17 0 -15 26 -12 40 5 7 8 21 15 32 15 33 0 58
19 58 45 0 14 -4 25 -10 25 -5 0 -10 -4 -10 -10z"/>
<path d="M692 1083 c-27 -5 -164 -132 -156 -145 8 -13 83 -9 112 6 45 24 112
106 112 137 0 9 -26 10 -68 2z"/>
<path d="M4338 983 c-26 -6 -22 -20 6 -25 33 -7 57 8 36 22 -8 5 -17 9 -20 9
-3 -1 -13 -3 -22 -6z"/>
<path d="M156 453 c19 -42 9 -91 -34 -151 -23 -33 -45 -68 -49 -78 -4 -11 -13
-25 -20 -32 -15 -16 -17 -32 -4 -32 5 0 13 9 16 20 7 22 32 50 45 50 19 0 4
-43 -23 -66 -23 -19 -32 -22 -43 -13 -23 19 -44 -13 -44 -70 0 -28 3 -51 8
-51 4 0 35 28 68 62 134 137 228 192 317 186 79 -5 72 15 -10 27 -40 6 -73 9
-73 6 0 -3 -5 0 -12 7 -17 17 -48 15 -48 -3 0 -8 -12 -22 -26 -32 -20 -13 -30
-14 -44 -6 -13 9 -20 9 -29 0 -6 -6 -11 -8 -11 -4 0 16 30 65 41 69 29 10 13
128 -18 128 -11 0 -13 -5 -7 -17z"/>
</g>
</svg>
